<svg width="26" height="22" viewBox="0 0 26 22" fill="none" xmlns="http://www.w3.org/2000/svg">
<path d="M1.75 12.25H21.2325L14.5275 18.955C14.0394 19.4431 14.0394 20.2347 14.5272 20.7225C15.0153 21.2106 15.8072 21.2106 16.2953 20.7225L25.1338 11.8838C25.1919 11.8256 25.2437 11.7616 25.2894 11.6934C25.3103 11.6619 25.325 11.6278 25.3431 11.595C25.3638 11.5563 25.3875 11.5194 25.4041 11.4784C25.4219 11.4363 25.4319 11.3925 25.4444 11.3488C25.4547 11.3141 25.4681 11.2809 25.4753 11.2453C25.4916 11.1641 25.5 11.0822 25.5 11C25.5 10.9991 25.4997 10.9981 25.4997 10.9972C25.4994 10.9163 25.4912 10.835 25.4753 10.7553C25.4678 10.7178 25.4538 10.6831 25.4428 10.6463C25.4306 10.6047 25.4212 10.5625 25.4044 10.5222C25.3862 10.4788 25.3619 10.4394 25.3394 10.3984C25.3225 10.3678 25.3091 10.3366 25.2897 10.3072C25.2441 10.2381 25.1916 10.1738 25.1331 10.1153L16.295 1.27751C15.8069 0.789385 15.0153 0.789385 14.5272 1.2772C14.0391 1.76532 14.0391 2.55689 14.5272 3.04532L21.2322 9.75001H1.75C1.05969 9.75001 0.5 10.3097 0.5 11C0.5 11.6903 1.05969 12.25 1.75 12.25Z" fill="#FF6A08"/>
</svg>
