<svg width="60" height="60" viewBox="0 0 60 60" fill="none" xmlns="http://www.w3.org/2000/svg">
<g filter="url(#filter0_d_651_1442)">
<path fill-rule="evenodd" clip-rule="evenodd" d="M5.625 36.5625V27.1875H54.375V36.5625C54.375 40.0587 51.9828 42.9961 48.7459 43.8273C48.7486 43.9053 48.75 43.9838 48.75 44.0625C48.75 47.6869 45.8119 50.625 42.1875 50.625C38.5631 50.625 35.625 47.6869 35.625 44.0625H24.375C24.375 47.6869 21.4369 50.625 17.8125 50.625C14.1881 50.625 11.25 47.6869 11.25 44.0625C11.25 43.9838 11.2514 43.9053 11.2541 43.8273C8.01724 42.9961 5.625 40.0587 5.625 36.5625ZM20.625 44.0625C20.625 45.6158 19.3658 46.875 17.8125 46.875C16.2592 46.875 15 45.6158 15 44.0625C15 42.5092 16.2592 41.25 17.8125 41.25C19.3658 41.25 20.625 42.5092 20.625 44.0625ZM45 44.0625C45 45.6158 43.7408 46.875 42.1875 46.875C40.6342 46.875 39.375 45.6158 39.375 44.0625C39.375 42.5092 40.6342 41.25 42.1875 41.25C43.7408 41.25 45 42.5092 45 44.0625Z" fill="#29B1F2"/>
<path fill-rule="evenodd" clip-rule="evenodd" d="M11.25 10.3125C8.1434 10.3125 5.625 12.8309 5.625 15.9375V23.4375H54.375L48.4946 13.1467C47.4931 11.3941 45.6293 10.3125 43.6107 10.3125H11.25ZM40.3125 19.6875C41.8658 19.6875 43.125 18.4283 43.125 16.875C43.125 15.3217 41.8658 14.0625 40.3125 14.0625C38.7592 14.0625 37.5 15.3217 37.5 16.875C37.5 18.4283 38.7592 19.6875 40.3125 19.6875Z" fill="#FF6A08"/>
<path d="M9.375 32.8125V23.4375H50.625V32.8125C50.625 34.8836 48.9461 36.5625 46.875 36.5625H13.125C11.0539 36.5625 9.375 34.8836 9.375 32.8125Z" fill="url(#paint0_linear_651_1442)"/>
<path d="M46.0924 15.8831L50.625 23.4375H9.375L9.375 17.8125C9.375 15.7414 11.0539 14.0625 13.125 14.0625L42.8768 14.0625C44.194 14.0625 45.4147 14.7536 46.0924 15.8831Z" fill="url(#paint1_linear_651_1442)"/>
</g>
<defs>
<filter id="filter0_d_651_1442" x="0" y="0" width="64" height="64" filterUnits="userSpaceOnUse" color-interpolation-filters="sRGB">
<feFlood flood-opacity="0" result="BackgroundImageFix"/>
<feColorMatrix in="SourceAlpha" type="matrix" values="0 0 0 0 0 0 0 0 0 0 0 0 0 0 0 0 0 0 127 0" result="hardAlpha"/>
<feOffset dx="4" dy="4"/>
<feColorMatrix type="matrix" values="0 0 0 0 0 0 0 0 0 0.0313726 0 0 0 0 0.196078 0 0 0 0.1 0"/>
<feBlend mode="normal" in2="BackgroundImageFix" result="effect1_dropShadow_651_1442"/>
<feBlend mode="normal" in="SourceGraphic" in2="effect1_dropShadow_651_1442" result="shape"/>
</filter>
<linearGradient id="paint0_linear_651_1442" x1="30" y1="14.0625" x2="30" y2="36.5625" gradientUnits="userSpaceOnUse">
<stop stop-color="white" stop-opacity="0.6"/>
<stop offset="1" stop-color="white" stop-opacity="0.1"/>
</linearGradient>
<linearGradient id="paint1_linear_651_1442" x1="30" y1="14.0625" x2="30" y2="36.5625" gradientUnits="userSpaceOnUse">
<stop stop-color="white" stop-opacity="0.6"/>
<stop offset="1" stop-color="white" stop-opacity="0.1"/>
</linearGradient>
</defs>
</svg>
