<svg width="49" height="49" viewBox="0 0 49 49" fill="none" xmlns="http://www.w3.org/2000/svg">
<g filter="url(#filter0_d_651_1444)">
<circle cx="22.5" cy="22.5" r="22.5" fill="#FF6A08"/>
</g>
<ellipse cx="24.375" cy="21.3281" rx="20.625" ry="19.9219" fill="url(#paint0_linear_651_1444)"/>
<path d="M17.6172 18.5938C17.6172 15.897 19.8033 13.7109 22.5 13.7109C25.1967 13.7109 27.3828 15.897 27.3828 18.5938C27.3828 21.2905 25.1967 23.4766 22.5 23.4766C19.8033 23.4766 17.6172 21.2905 17.6172 18.5938ZM22.5 21.5234C24.118 21.5234 25.4297 20.2118 25.4297 18.5938C25.4297 16.9757 24.118 15.6641 22.5 15.6641C20.882 15.6641 19.5703 16.9757 19.5703 18.5938C19.5703 20.2118 20.882 21.5234 22.5 21.5234Z" fill="#F2F2F2"/>
<path d="M16.9757 26.7414C15.5106 28.2065 14.6875 30.1936 14.6875 32.2656H16.6406C16.6406 30.7116 17.258 29.2213 18.3568 28.1224C19.4556 27.0236 20.946 26.4062 22.5 26.4062C24.054 26.4062 25.5444 27.0236 26.6432 28.1224C27.7421 29.2213 28.3594 30.7116 28.3594 32.2656H30.3125C30.3125 30.1936 29.4894 28.2065 28.0243 26.7414C26.5591 25.2762 24.572 24.4531 22.5 24.4531C20.428 24.4531 18.4409 25.2762 16.9757 26.7414Z" fill="#F2F2F2"/>
<defs>
<filter id="filter0_d_651_1444" x="0" y="0" width="49" height="49" filterUnits="userSpaceOnUse" color-interpolation-filters="sRGB">
<feFlood flood-opacity="0" result="BackgroundImageFix"/>
<feColorMatrix in="SourceAlpha" type="matrix" values="0 0 0 0 0 0 0 0 0 0 0 0 0 0 0 0 0 0 127 0" result="hardAlpha"/>
<feOffset dx="4" dy="4"/>
<feComposite in2="hardAlpha" operator="out"/>
<feColorMatrix type="matrix" values="0 0 0 0 0 0 0 0 0 0.0313726 0 0 0 0 0.196078 0 0 0 0.1 0"/>
<feBlend mode="normal" in2="BackgroundImageFix" result="effect1_dropShadow_651_1444"/>
<feBlend mode="normal" in="SourceGraphic" in2="effect1_dropShadow_651_1444" result="shape"/>
</filter>
<linearGradient id="paint0_linear_651_1444" x1="24.375" y1="1.40625" x2="24.375" y2="41.25" gradientUnits="userSpaceOnUse">
<stop stop-color="white" stop-opacity="0.56"/>
<stop offset="1" stop-color="white" stop-opacity="0.09"/>
</linearGradient>
</defs>
</svg>
