<svg width="20" height="20" viewBox="0 0 20 20" fill="none" xmlns="http://www.w3.org/2000/svg">
    <path d="M2.50033 10.8333H15.4887L11.0187 15.3033C10.6932 15.6287 10.6932 16.1564 11.0185 16.4816C11.3439 16.807 11.8718 16.807 12.1972 16.4816L18.0895 10.5891C18.1282 10.5503 18.1628 10.5076 18.1932 10.4622C18.2072 10.4412 18.217 10.4185 18.2291 10.3966C18.2428 10.3708 18.2587 10.3462 18.2697 10.3189C18.2816 10.2908 18.2882 10.2616 18.2966 10.2324C18.3035 10.2093 18.3124 10.1872 18.3172 10.1635C18.328 10.1093 18.3337 10.0547 18.3337 9.99993C18.3337 9.9993 18.3335 9.99868 18.3335 9.99805C18.3332 9.94409 18.3278 9.88993 18.3172 9.8368C18.3122 9.8118 18.3028 9.78868 18.2955 9.76409C18.2874 9.73638 18.2812 9.70826 18.2699 9.68138C18.2578 9.65243 18.2416 9.62618 18.2266 9.59888C18.2153 9.57847 18.2064 9.55763 18.1935 9.53805C18.163 9.49201 18.128 9.44909 18.0891 9.41013L12.197 3.51826C11.8716 3.19284 11.3439 3.19284 11.0185 3.51805C10.693 3.84347 10.693 4.37118 11.0185 4.6968L15.4885 9.16659H2.50033C2.04012 9.16659 1.66699 9.53972 1.66699 9.99993C1.66699 10.4601 2.04012 10.8333 2.50033 10.8333Z" fill="white"/>
</svg>
