<svg width="100" height="100" viewBox="0 0 100 100" fill="none" xmlns="http://www.w3.org/2000/svg">
    <g filter="url(#filter0_d_618_402)">
        <circle cx="48" cy="48" r="48" fill="#FF6A08"/>
        <ellipse cx="52" cy="45.5" rx="44" ry="42.5" fill="url(#paint0_linear_618_402)"/>
        <path d="M49.8689 69.7669C48.7632 69.7701 47.7023 69.3305 46.9231 68.5461L30.596 52.2231C29.7345 51.3645 29.2928 50.1712 29.3877 48.9586L30.4293 35.2794C30.5781 33.2204 32.2198 31.585 34.2793 31.444L47.9585 30.4023C48.0668 30.3794 48.1731 30.3794 48.2814 30.3794C49.3849 30.3781 50.4431 30.8176 51.221 31.6002L67.5481 47.9211C68.3298 48.7025 68.7691 49.7626 68.7691 50.8679C68.7691 51.9733 68.3298 53.0334 67.5481 53.8148L52.8147 68.5461C52.0352 69.3301 50.9745 69.7697 49.8689 69.7669ZM41.0293 37.8627C39.1435 37.8633 37.4932 39.1303 37.0056 40.952C36.5179 42.7736 37.3146 44.6957 38.9479 45.6382C40.5812 46.5808 42.644 46.3089 43.9772 44.9752L43.9918 44.9627L44.0064 44.9481L43.9897 44.9627C45.174 43.7681 45.5237 41.9785 44.8763 40.4259C44.229 38.8733 42.7115 37.8622 41.0293 37.8627Z" fill="#F2F2F2"/>
    </g>
    <defs>
        <filter id="filter0_d_618_402" x="0" y="0" width="100" height="100" filterUnits="userSpaceOnUse" color-interpolation-filters="sRGB">
            <feFlood flood-opacity="0" result="BackgroundImageFix"/>
            <feColorMatrix in="SourceAlpha" type="matrix" values="0 0 0 0 0 0 0 0 0 0 0 0 0 0 0 0 0 0 127 0" result="hardAlpha"/>
            <feOffset dx="4" dy="4"/>
            <feComposite in2="hardAlpha" operator="out"/>
            <feColorMatrix type="matrix" values="0 0 0 0 0 0 0 0 0 0.0313726 0 0 0 0 0.196078 0 0 0 0.1 0"/>
            <feBlend mode="normal" in2="BackgroundImageFix" result="effect1_dropShadow_618_402"/>
            <feBlend mode="normal" in="SourceGraphic" in2="effect1_dropShadow_618_402" result="shape"/>
        </filter>
        <linearGradient id="paint0_linear_618_402" x1="52" y1="3" x2="52" y2="88" gradientUnits="userSpaceOnUse">
            <stop stop-color="white" stop-opacity="0.56"/>
            <stop offset="1" stop-color="white" stop-opacity="0.09"/>
        </linearGradient>
    </defs>
</svg>
