<svg width="128" height="128" viewBox="0 0 128 128" fill="none" xmlns="http://www.w3.org/2000/svg">
    <g filter="url(#filter0_d_618_370)">
        <path fill-rule="evenodd" clip-rule="evenodd" d="M12 78V58H116V78C116 85.4585 110.897 91.7251 103.991 93.4982C103.997 93.6647 104 93.832 104 94C104 101.732 97.732 108 90 108C82.268 108 76 101.732 76 94H52C52 101.732 45.732 108 38 108C30.268 108 24 101.732 24 94C24 93.832 24.003 93.6647 24.0088 93.4982C17.1034 91.7251 12 85.4585 12 78ZM44 94C44 97.3137 41.3137 100 38 100C34.6863 100 32 97.3137 32 94C32 90.6863 34.6863 88 38 88C41.3137 88 44 90.6863 44 94ZM96 94C96 97.3137 93.3137 100 90 100C86.6863 100 84 97.3137 84 94C84 90.6863 86.6863 88 90 88C93.3137 88 96 90.6863 96 94Z" fill="#29B1F2"/>
        <path fill-rule="evenodd" clip-rule="evenodd" d="M24 22C17.3726 22 12 27.3726 12 34V50H116L103.455 28.0463C101.319 24.3074 97.3424 22 93.0361 22H24ZM86 42C89.3137 42 92 39.3137 92 36C92 32.6863 89.3137 30 86 30C82.6863 30 80 32.6863 80 36C80 39.3137 82.6863 42 86 42Z" fill="#FF6A08"/>
        <path d="M20 70V50H108V70C108 74.4183 104.418 78 100 78H28C23.5817 78 20 74.4183 20 70Z" fill="url(#paint0_linear_618_370)"/>
        <path d="M98.3304 33.884L108 50H20L20 38C20 33.5817 23.5817 30 28 30L91.4705 30C94.2806 30 96.8846 31.4744 98.3304 33.884Z" fill="url(#paint1_linear_618_370)"/>
    </g>
    <defs>
        <filter id="filter0_d_618_370" x="0" y="0" width="132" height="132" filterUnits="userSpaceOnUse" color-interpolation-filters="sRGB">
            <feFlood flood-opacity="0" result="BackgroundImageFix"/>
            <feColorMatrix in="SourceAlpha" type="matrix" values="0 0 0 0 0 0 0 0 0 0 0 0 0 0 0 0 0 0 127 0" result="hardAlpha"/>
            <feOffset dx="4" dy="4"/>
            <feColorMatrix type="matrix" values="0 0 0 0 0 0 0 0 0 0.0313726 0 0 0 0 0.196078 0 0 0 0.1 0"/>
            <feBlend mode="normal" in2="BackgroundImageFix" result="effect1_dropShadow_618_370"/>
            <feBlend mode="normal" in="SourceGraphic" in2="effect1_dropShadow_618_370" result="shape"/>
        </filter>
        <linearGradient id="paint0_linear_618_370" x1="64" y1="30" x2="64" y2="78" gradientUnits="userSpaceOnUse">
            <stop stop-color="white" stop-opacity="0.6"/>
            <stop offset="1" stop-color="white" stop-opacity="0.1"/>
        </linearGradient>
        <linearGradient id="paint1_linear_618_370" x1="64" y1="30" x2="64" y2="78" gradientUnits="userSpaceOnUse">
            <stop stop-color="white" stop-opacity="0.6"/>
            <stop offset="1" stop-color="white" stop-opacity="0.1"/>
        </linearGradient>
    </defs>
</svg>
