<svg width="128" height="128" viewBox="0 0 128 128" fill="none" xmlns="http://www.w3.org/2000/svg">
    <g filter="url(#filter0_d_618_365)">
        <path d="M12 92V44H100C108.837 44 116 51.1634 116 60H94C91.8996 60 88.1146 60.8217 84.7621 63.0846C81.1937 65.4933 78 69.6463 78 76C78 82.3537 81.1937 86.5067 84.7621 88.9154C88.1146 91.1783 91.8996 92 94 92H116C116 100.837 108.837 108 100 108H28C19.1634 108 12 100.837 12 92Z" fill="#29B1F2"/>
        <path fill-rule="evenodd" clip-rule="evenodd" d="M94 68H116V84H94C93.4337 84 91.2187 83.6217 89.2379 82.2846C87.473 81.0933 86 79.2463 86 76C86 72.7537 87.473 70.9067 89.2379 69.7154C91.2187 68.3783 93.4337 68 94 68ZM94 80C96.2091 80 98 78.2091 98 76C98 73.7909 96.2091 72 94 72C91.7909 72 90 73.7909 90 76C90 78.2091 91.7909 80 94 80Z" fill="#29B1F2"/>
        <path d="M28 20H84C92.8366 20 100 27.1634 100 36H12C12 27.1634 19.1634 20 28 20Z" fill="#FF6A08"/>
        <path d="M20 40V80C20 86.6274 25.3726 92 32 92H96C102.627 92 108 86.6274 108 80V56C108 49.3726 102.627 44 96 44H92V40C92 33.3726 86.6274 28 80 28H32C25.3726 28 20 33.3726 20 40Z" fill="url(#paint0_linear_618_365)"/>
    </g>
    <defs>
        <filter id="filter0_d_618_365" x="0" y="0" width="132" height="132" filterUnits="userSpaceOnUse" color-interpolation-filters="sRGB">
            <feFlood flood-opacity="0" result="BackgroundImageFix"/>
            <feColorMatrix in="SourceAlpha" type="matrix" values="0 0 0 0 0 0 0 0 0 0 0 0 0 0 0 0 0 0 127 0" result="hardAlpha"/>
            <feOffset dx="4" dy="4"/>
            <feColorMatrix type="matrix" values="0 0 0 0 0 0 0 0 0 0.0313726 0 0 0 0 0.196078 0 0 0 0.1 0"/>
            <feBlend mode="normal" in2="BackgroundImageFix" result="effect1_dropShadow_618_365"/>
            <feBlend mode="normal" in="SourceGraphic" in2="effect1_dropShadow_618_365" result="shape"/>
        </filter>
        <linearGradient id="paint0_linear_618_365" x1="64" y1="28" x2="64" y2="92" gradientUnits="userSpaceOnUse">
            <stop stop-color="white" stop-opacity="0.6"/>
            <stop offset="1" stop-color="white" stop-opacity="0.1"/>
        </linearGradient>
    </defs>
</svg>
