<svg width="104" height="104" viewBox="0 0 104 104" fill="none" xmlns="http://www.w3.org/2000/svg">
    <path d="M44 8H16C7.16344 8 0 15.1634 0 24V52H44V8Z" fill="#FF6A08"/>
    <path d="M0 60V88C0 96.8366 7.16345 104 16 104H44V60H0Z" fill="#FF6A08"/>
    <path d="M52 104V60H96V88C96 96.8366 88.8366 104 80 104H52Z" fill="#FF6A08"/>
    <path d="M60 0H88C96.8366 0 104 7.16344 104 16V44H60V0Z" fill="#29B1F2"/>
    <path d="M16 20C16 13.3726 21.3726 8 28 8H84C90.6274 8 96 13.3726 96 20V76C96 82.6274 90.6274 88 84 88H28C21.3726 88 16 82.6274 16 76V20Z" fill="url(#paint0_linear_3589_376)"/>
    <defs>
        <linearGradient id="paint0_linear_3589_376" x1="56" y1="8" x2="56" y2="88" gradientUnits="userSpaceOnUse">
            <stop stop-color="white" stop-opacity="0.6"/>
            <stop offset="1" stop-color="white" stop-opacity="0.1"/>
        </linearGradient>
    </defs>
</svg>
