<svg width="25" height="24" viewBox="0 0 25 24" fill="none" xmlns="http://www.w3.org/2000/svg">
    <path d="M8.2296 17.624C6.58502 17.624 5.25195 18.9573 5.25195 20.6021C5.25195 22.2467 6.58502 23.58 8.2296 23.58C9.87396 23.58 11.207 22.2467 11.207 20.6021C11.2053 18.9581 9.87332 17.6257 8.2296 17.624ZM8.2296 22.4852C7.18966 22.4852 6.34663 21.642 6.34663 20.6021C6.34663 19.562 7.18966 18.7189 8.2296 18.7189C9.26933 18.7189 10.1124 19.562 10.1124 20.6021C10.1124 21.642 9.26933 22.4852 8.2296 22.4852Z" fill="#4F4F4F"/>
    <path d="M24.4581 5.12689H5.13165L4.73761 2.92077C4.49473 1.56271 3.43042 0.500385 2.07213 0.26025L0.643505 0.00856807C0.345678 -0.0444627 0.0615342 0.154189 0.00851112 0.451845C-0.0442981 0.749715 0.154111 1.0339 0.451938 1.08693L1.88591 1.33861C2.79072 1.49899 3.49905 2.20742 3.6594 3.11236L5.59688 14.0442C5.82565 15.3522 6.96201 16.3063 8.28973 16.305H19.7838C20.9913 16.3087 22.0578 15.5181 22.4056 14.3617L24.9781 5.83297C25.0258 5.66661 24.9956 5.48741 24.896 5.34585C24.7919 5.20879 24.63 5.12796 24.4581 5.12689ZM21.3601 14.0386C21.1536 14.7332 20.5137 15.2083 19.7893 15.2047H8.29529C7.49802 15.2068 6.81556 14.6331 6.68065 13.847L5.32878 6.21616H23.7246L21.3601 14.0386Z" fill="#4F4F4F"/>
    <path d="M19.7237 17.624C18.0792 17.624 16.7461 18.9573 16.7461 20.6021C16.7461 22.2467 18.0792 23.58 19.7237 23.58C21.3681 23.58 22.7012 22.2467 22.7012 20.6021C22.6995 18.9581 21.3675 17.6257 19.7237 17.624ZM19.7237 22.4852C18.6838 22.4852 17.8408 21.642 17.8408 20.6021C17.8408 19.562 18.6838 18.7189 19.7237 18.7189C20.7635 18.7189 21.6065 19.562 21.6065 20.6021C21.6065 21.642 20.7635 22.4852 19.7237 22.4852Z" fill="#4F4F4F"/>
</svg>
