<svg width="24" height="20" viewBox="0 0 24 20" fill="none" xmlns="http://www.w3.org/2000/svg">
    <path d="M0.5 1.102C0.5 1.406 0.608 1.668 0.825 1.886C1.042 2.104 1.295 2.214 1.583 2.214H4.467L5.943 12.398C6.061 13.178 6.343 13.793 6.76 14.238C7.177 14.683 7.79 14.908 8.57 14.908H20.006C20.268 14.908 20.501 14.818 20.706 14.635C20.8074 14.5432 20.8873 14.4302 20.94 14.3041C20.9927 14.1779 21.017 14.0416 21.011 13.905C21.011 13.607 20.909 13.367 20.706 13.185C20.503 13.003 20.27 12.912 20.006 12.912H8.836C8.639 12.912 8.48 12.847 8.359 12.718C8.238 12.589 8.161 12.415 8.129 12.198L7.981 11.176H20.126C20.913 11.176 21.52 10.953 21.946 10.506C22.372 10.059 22.641 9.439 22.753 8.646L23.453 3.902L23.487 3.684C23.497 3.604 23.502 3.532 23.502 3.466C23.502 3.142 23.395 2.876 23.182 2.666C22.969 2.456 22.665 2.353 22.282 2.353H6.73L6.582 1.41C6.522 0.947 6.37 0.596 6.124 0.358C5.878 0.12 5.464 0 4.88 0H1.583C1.293 0 1.043 0.11 0.825 0.328C0.607 0.546 0.5 0.804 0.5 1.102ZM7.586 18.174C7.586 18.511 7.668 18.819 7.832 19.097C7.996 19.375 8.214 19.595 8.486 19.757C8.758 19.919 9.066 20 9.406 20C9.906 20 10.331 19.823 10.686 19.47C10.8584 19.3019 10.9944 19.1003 11.0858 18.8776C11.1771 18.6548 11.2218 18.4157 11.217 18.175C11.217 17.838 11.135 17.53 10.971 17.252C10.807 16.974 10.589 16.754 10.317 16.592C10.045 16.43 9.741 16.349 9.417 16.349C9.077 16.349 8.769 16.429 8.497 16.592C8.225 16.755 7.997 16.974 7.843 17.252C7.689 17.53 7.597 17.838 7.597 18.175L7.586 18.174ZM16.581 18.174C16.581 18.511 16.663 18.819 16.827 19.097C16.991 19.375 17.211 19.595 17.487 19.757C17.7643 19.9196 18.0806 20.0036 18.402 20C18.641 20.0044 18.8784 19.9596 19.0993 19.8682C19.3202 19.7769 19.5199 19.641 19.686 19.469C19.8572 19.3002 19.9922 19.0984 20.0828 18.8757C20.1734 18.6531 20.2177 18.4143 20.213 18.174C20.2166 17.8503 20.1334 17.5316 19.972 17.251C19.812 16.973 19.592 16.753 19.317 16.591C19.0397 16.4284 18.7234 16.3444 18.402 16.348C18.0806 16.3444 17.7643 16.4284 17.487 16.591C17.211 16.753 16.992 16.973 16.827 17.251C16.662 17.529 16.581 17.837 16.581 18.174Z" fill="white"/>
</svg>
