<svg width="25" height="20" viewBox="0 0 25 20" fill="none" xmlns="http://www.w3.org/2000/svg">
    <path d="M12.5 20C12.1441 20 11.801 19.8841 11.5335 19.6734C10.5236 18.8794 9.5499 18.1331 8.69083 17.4749L8.68645 17.4714C6.16779 15.5415 3.99284 13.8747 2.47955 12.2329C0.787926 10.3974 0 8.65709 0 6.75591C0 4.90876 0.704384 3.20464 1.98326 1.95726C3.2774 0.695126 5.05314 0 6.98395 0C8.42705 0 9.74865 0.410249 10.9119 1.21926C11.499 1.62762 12.0312 2.1274 12.5 2.71036C12.969 2.1274 13.501 1.62762 14.0882 1.21926C15.2515 0.410249 16.5731 0 18.0162 0C19.9469 0 21.7228 0.695126 23.0169 1.95726C24.2958 3.20464 25 4.90876 25 6.75591C25 8.65709 24.2123 10.3974 22.5206 12.2327C21.0073 13.8747 18.8326 15.5413 16.3143 17.4711C15.4537 18.1304 14.4785 18.8778 13.4663 19.6738C13.199 19.8841 12.8557 20 12.5 20ZM6.98395 1.31685C5.46703 1.31685 4.07352 1.86121 3.05977 2.84979C2.03094 3.85329 1.46427 5.24046 1.46427 6.75591C1.46427 8.35489 2.12517 9.78493 3.60699 11.3927C5.03922 12.9467 7.16953 14.5791 9.63612 16.4693L9.64069 16.4727C10.503 17.1336 11.4805 17.8827 12.4979 18.6826C13.5214 17.8812 14.5004 17.1308 15.3645 16.469C17.8308 14.5788 19.961 12.9467 21.3932 11.3927C22.8748 9.78493 23.5357 8.35489 23.5357 6.75591C23.5357 5.24046 22.9691 3.85329 21.9402 2.84979C20.9267 1.86121 19.533 1.31685 18.0162 1.31685C16.905 1.31685 15.8848 1.63448 14.9839 2.26083C14.1811 2.81926 13.6219 3.52519 13.294 4.01914C13.1254 4.27315 12.8286 4.42476 12.5 4.42476C12.1714 4.42476 11.8746 4.27315 11.706 4.01914C11.3783 3.52519 10.8191 2.81926 10.0161 2.26083C9.11522 1.63448 8.09498 1.31685 6.98395 1.31685Z" fill="#4F4F4F"/>
</svg>
