<svg width="17" height="17" viewBox="0 0 17 17" fill="none" xmlns="http://www.w3.org/2000/svg">
    <path d="M8.42402 16.2855C7.03662 16.2855 5.67845 15.9136 4.49581 15.2115L4.21584 15.0444L1.29892 15.8091L2.07624 12.9632L1.89236 12.6707C1.11927 11.4421 0.713867 10.0255 0.713867 8.56701C0.713867 4.31702 4.17404 0.856934 8.42821 0.856934C10.4884 0.856934 12.4232 1.65928 13.8775 3.1177C15.3318 4.57616 16.2261 6.51104 16.2219 8.57124C16.2219 12.8255 12.6739 16.2855 8.42402 16.2855Z" fill="#4F4F4F"/>
    <path d="M12.6531 10.51C12.4233 10.3931 11.2825 9.83295 11.0693 9.75786C10.8562 9.67841 10.7016 9.64085 10.547 9.87487C10.3924 10.1089 9.94942 10.627 9.81145 10.7859C9.67775 10.9405 9.53982 10.9614 9.30999 10.8444C7.94766 10.1633 7.05341 9.62835 6.15494 8.08626C5.91672 7.67674 6.39319 7.70597 6.83608 6.82011C6.91137 6.66541 6.87377 6.53171 6.81516 6.4147C6.75672 6.29769 6.29282 5.15685 6.1006 4.69296C5.91257 4.24165 5.72035 4.30432 5.57823 4.29598C5.44453 4.2876 5.28983 4.2876 5.13529 4.2876C4.98064 4.2876 4.72993 4.34612 4.51679 4.57595C4.30368 4.80997 3.70605 5.36999 3.70605 6.51083C3.70605 7.65167 4.53762 8.75495 4.65048 8.90952C4.76745 9.0641 6.28448 11.4043 8.61208 12.4115C10.0831 13.0467 10.6598 13.1009 11.3953 12.9923C11.8424 12.9254 12.7661 12.4323 12.9582 11.8891C13.1505 11.3459 13.1505 10.8821 13.0919 10.7859C13.0376 10.6813 12.8829 10.6229 12.6531 10.51Z" fill="white"/>
</svg>
