<svg width="22" height="30" viewBox="0 0 22 30" fill="none" xmlns="http://www.w3.org/2000/svg">
    <path d="M19.0349 16.25H5.1188L9.90809 22.955C10.2568 23.4431 10.2568 24.2347 9.90831 24.7225C9.55965 25.2106 8.99403 25.2106 8.64537 24.7225L2.3322 15.8838C2.29068 15.8256 2.25363 15.7616 2.22104 15.6934C2.20608 15.6619 2.19559 15.6278 2.18264 15.595C2.16791 15.5563 2.15095 15.5194 2.13912 15.4784C2.12639 15.4363 2.11925 15.3925 2.11032 15.3488C2.10296 15.3141 2.09336 15.2809 2.08822 15.2453C2.07662 15.1641 2.07059 15.0822 2.07059 15C2.07059 14.9991 2.07081 14.9981 2.07081 14.9972C2.07104 14.9163 2.07684 14.835 2.08822 14.7553C2.09358 14.7178 2.10363 14.6831 2.11144 14.6463C2.12014 14.6047 2.12684 14.5625 2.13889 14.5222C2.15184 14.4788 2.16925 14.4394 2.18532 14.3984C2.19738 14.3678 2.20697 14.3366 2.22081 14.3072C2.2534 14.2381 2.2909 14.1738 2.33265 14.1153L8.64559 5.27751C8.99425 4.78938 9.55965 4.78938 9.90831 5.2772C10.257 5.76532 10.257 6.55689 9.90831 7.04532L5.11903 13.75H19.0349C19.528 13.75 19.9277 14.3097 19.9277 15C19.9277 15.6903 19.528 16.25 19.0349 16.25Z" fill="white"/>
</svg>
