<svg width="25" height="25" viewBox="0 0 25 25" fill="none" xmlns="http://www.w3.org/2000/svg">
    <path d="M16.6406 4.80469C19.1162 4.80469 21.1279 6.82129 21.1279 9.31152C21.1279 10.5908 20.5957 11.7432 19.7461 12.5635L12.5 19.8779L5.12695 12.4316C4.35547 11.6211 3.87695 10.5225 3.87695 9.31152C3.87695 6.82129 5.88379 4.80469 8.36426 4.80469C10.2295 4.80469 11.8262 5.94727 12.5049 7.57812C13.1738 5.95215 14.7754 4.80469 16.6406 4.80469ZM16.6406 4.05273C14.9902 4.05273 13.4766 4.82422 12.5 6.09375C11.5234 4.82422 10.0098 4.05273 8.35938 4.05273C5.47363 4.05273 3.125 6.41113 3.125 9.31152C3.125 10.6738 3.64258 11.9678 4.58496 12.9541L11.9678 20.4102L12.5 20.9473L13.0322 20.4102L20.2734 13.0957C21.2988 12.1045 21.875 10.7568 21.875 9.31152C21.875 6.41113 19.5264 4.05273 16.6406 4.05273Z" fill="#231D1D"/>
</svg>
